<?xml version="1.0" standalone="no"?>
<!DOCTYPE svg PUBLIC "-//W3C//DTD SVG 20010904//EN"
 "http://www.w3.org/TR/2001/REC-SVG-20010904/DTD/svg10.dtd">
<svg version="1.0" xmlns="http://www.w3.org/2000/svg"
 width="700.000000pt" height="700.000000pt" viewBox="0 0 700.000000 700.000000"
 preserveAspectRatio="xMidYMid meet">
<metadata>
Created by potrace 1.14, written by Peter Selinger 2001-2017
</metadata>
<g transform="translate(0.000000,700.000000) scale(0.100000,-0.100000)"
fill="#000000" stroke="none">
<path d="M3417 6364 c-1 -1 -34 -5 -72 -8 -39 -4 -80 -8 -92 -10 -11 -3 -38
-7 -59 -10 -22 -4 -85 -17 -141 -31 -738 -177 -1342 -800 -1498 -1545 -54
-256 -58 -541 -12 -815 38 -230 172 -553 314 -761 198 -290 477 -533 778 -678
189 -92 309 -135 464 -167 52 -11 98 -22 103 -25 4 -3 8 -261 8 -573 0 -533
-1 -569 -17 -572 -10 -3 -402 -4 -871 -3 -469 0 -855 -3 -858 -7 -3 -6 -7
-459 -5 -555 l1 -20 2040 0 2040 -1 1 56 c2 204 -1 513 -5 520 -3 4 -391 7
-863 6 -472 0 -864 1 -870 3 -10 3 -13 126 -13 568 0 444 3 564 13 565 6 0 20
2 29 4 9 2 34 6 55 9 180 27 402 100 578 189 82 41 235 134 280 169 123 96
184 149 249 214 326 327 522 733 584 1204 9 73 9 398 -1 480 -26 228 -137 574
-232 730 -12 19 -39 64 -60 100 -139 233 -385 485 -630 642 -262 169 -586 283
-890 314 -63 6 -342 13 -348 8z m293 -589 c36 -3 81 -10 100 -15 19 -5 49 -11
65 -13 50 -7 239 -74 307 -108 255 -127 463 -314 609 -549 91 -145 175 -370
195 -519 3 -25 10 -68 14 -94 12 -78 4 -294 -15 -402 -26 -153 -99 -356 -168
-470 -104 -172 -270 -359 -404 -455 -187 -135 -385 -217 -633 -266 -19 -3
-111 -8 -205 -10 -138 -3 -191 1 -280 17 -204 37 -393 115 -568 232 -94 63
-292 250 -337 319 -14 21 -28 38 -32 38 -5 0 -8 4 -8 10 0 5 -20 40 -44 77
-102 159 -170 350 -201 568 -13 86 -13 341 -1 395 3 14 11 52 17 85 30 163
120 375 226 534 175 259 468 475 773 569 60 19 128 36 189 47 14 3 63 7 110
11 47 3 87 7 88 8 4 3 141 -3 203 -9z"/>
</g>
</svg>
